<svg version="1.1" id="Layer_1" xmlns="http://www.w3.org/2000/svg" xmlns:xlink="http://www.w3.org/1999/xlink" x="0px" y="0px"
	 width="100%" viewBox="0 0 1024 1024" enable-background="new 0 0 1024 1024" xml:space="preserve">
<path fill="#FFFFFF" opacity="1.000000" stroke="none" 
	d="
M651.000000,1025.000000 
	C434.000000,1025.000000 217.500000,1025.000000 1.000000,1025.000000 
	C1.000000,683.666687 1.000000,342.333344 1.000000,1.000000 
	C342.333344,1.000000 683.666687,1.000000 1025.000000,1.000000 
	C1025.000000,342.333344 1025.000000,683.666687 1025.000000,1025.000000 
	C900.500000,1025.000000 776.000000,1025.000000 651.000000,1025.000000 
M602.283569,206.874084 
	C602.283569,206.874084 602.367432,206.741592 602.349487,206.138718 
	C601.907898,205.741959 601.466309,205.345200 601.005615,205.003082 
	C601.005615,205.003082 601.055298,204.973312 600.652893,204.434113 
	C599.812866,204.184418 598.972900,203.934738 597.990417,203.773163 
	C597.990417,203.773163 598.057190,203.926758 597.654297,203.145508 
	C596.662476,203.054749 595.670593,202.884415 594.678772,202.884537 
	C522.203369,202.893417 449.727814,202.861679 377.253174,203.102905 
	C373.765778,203.114502 370.286438,205.541641 366.908417,206.830353 
	C366.908417,206.830353 366.849701,206.742172 366.409088,206.859039 
	C366.409088,206.859039 366.041840,207.129105 365.427704,207.306473 
	C364.255188,208.527054 363.082703,209.747635 361.605804,211.178482 
	C361.605804,211.178482 361.558838,211.545425 361.585693,211.604050 
	C361.585693,211.604050 361.572418,211.667145 361.030273,211.879898 
	C360.630859,212.555710 360.231445,213.231506 359.918121,213.939926 
	C359.918121,213.939926 359.904114,213.848938 359.320007,214.240738 
	C351.818909,233.476166 344.317810,252.711594 336.920349,271.960602 
	C336.920349,271.960602 336.907623,271.856842 336.334167,272.293579 
	C334.131622,278.486847 331.929108,284.680115 329.864014,290.954315 
	C329.864014,290.954315 329.773682,290.822876 329.142059,291.130188 
	C327.276855,296.060608 325.411682,300.991028 323.185699,306.178040 
	C323.012817,306.447357 322.982056,306.732025 322.813873,307.692810 
	C320.257324,314.452789 317.700775,321.212769 314.913025,328.690308 
	C313.673706,332.164368 312.434387,335.638428 310.542450,339.402985 
	C305.508636,352.190948 300.437317,364.964294 295.448486,377.769775 
	C283.433136,408.611389 271.453827,439.467041 259.466461,470.319580 
	C257.263275,475.990051 255.534531,481.661774 259.864197,487.083008 
	C259.864197,487.083008 259.782684,487.140747 259.975525,487.756836 
	C260.838409,488.628418 261.701324,489.499969 262.638519,490.364624 
	C262.638519,490.364624 262.712128,490.376709 262.997803,490.992798 
	C266.579315,492.052246 270.151703,493.997437 273.743713,494.034302 
	C310.389893,494.410492 347.039215,494.481201 383.687744,494.624542 
	C391.084229,494.653473 398.480957,494.628723 406.187439,494.628723 
	C404.425659,501.187927 402.845459,507.071045 400.950348,513.696411 
	C397.009064,526.478760 393.067780,539.261108 388.905548,552.760803 
	C388.679077,553.198364 388.377319,553.613098 388.236847,554.076721 
	C374.192657,600.429565 360.134308,646.778137 346.144196,693.147339 
	C342.047546,706.725525 338.146881,720.362854 333.985870,734.739380 
	C332.976135,738.440491 331.966431,742.141541 330.325867,746.227295 
	C328.660309,751.601501 326.840363,756.934021 325.373749,762.361938 
	C323.978149,767.527100 325.717438,771.615479 329.964600,774.057861 
	C329.964600,774.057861 329.876495,774.072449 330.337433,774.615906 
	C332.240204,774.769653 334.143005,774.923340 336.789612,775.002563 
	C340.648346,772.095032 345.240021,769.797791 348.249451,766.183167 
	C371.666351,738.057556 394.805176,709.699890 417.979553,681.372864 
	C470.116455,617.643616 522.228455,553.893982 574.341431,490.145172 
	C589.922974,471.084564 605.511719,452.029572 621.010620,432.901886 
	C624.536621,428.550354 626.312317,423.615753 624.105042,417.276917 
	C623.439148,416.458984 622.773315,415.641052 622.062012,414.925812 
	C622.062012,414.925812 622.172791,414.944153 621.979431,414.413147 
	C621.677673,414.209534 621.375977,414.005890 621.066467,413.906616 
	C621.066467,413.906616 621.167297,413.878601 620.711792,413.227478 
	C616.145935,412.843414 611.580139,412.459351 606.217407,411.920135 
	C605.140076,411.972321 604.062805,412.024536 602.054871,411.974548 
	C583.791748,411.984314 565.528564,412.023193 547.265503,411.996307 
	C525.526184,411.964325 503.787018,411.875946 482.363129,411.227417 
	C488.227203,401.478058 494.091278,391.728699 500.297455,381.521606 
	C500.563141,381.029816 500.828857,380.538025 501.016022,380.025513 
	C501.016022,380.025513 501.050690,380.098969 501.562286,379.681732 
	C502.419525,378.144043 503.276733,376.606354 504.049255,375.042114 
	C504.049255,375.042114 504.074371,375.127289 504.607422,374.726715 
	C505.469391,373.171600 506.331360,371.616516 507.082764,370.060120 
	C507.082764,370.060120 507.113129,370.166382 507.653442,369.834625 
	C508.137421,368.906555 508.621368,367.978485 509.025299,367.027466 
	C509.025299,367.027466 509.055695,367.104950 509.584808,366.667297 
	C509.843811,365.840302 510.102814,365.013336 510.353333,364.321747 
	C510.353333,364.321747 510.488983,364.319672 511.020355,364.116211 
	C511.379822,363.426422 511.739288,362.736603 512.019409,362.026886 
	C512.019409,362.026886 512.052673,362.101624 512.575195,361.695526 
	C513.435425,360.157593 514.295654,358.619690 515.069885,357.055389 
	C515.069885,357.055389 515.087708,357.143555 515.648254,356.778656 
	C516.486328,355.214478 517.324402,353.650299 518.076294,352.058868 
	C518.076294,352.058868 518.092102,352.147888 518.628662,351.812592 
	C519.121338,350.892181 519.614014,349.971771 520.025696,349.029541 
	C520.025696,349.029541 520.057495,349.107147 520.582397,348.702972 
	C521.444763,347.165375 522.307129,345.627777 523.084534,344.061340 
	C523.084534,344.061340 523.094055,344.150665 523.651367,343.782227 
	C524.499939,342.224670 525.348511,340.667114 526.107971,339.073303 
	C526.107971,339.073303 526.109070,339.169464 526.653503,338.851196 
	C526.867432,338.274200 527.081360,337.697174 527.164124,337.023682 
	C527.164124,337.023682 527.082458,337.164459 527.756287,337.007568 
	C527.937744,336.580811 528.119202,336.154053 528.866150,335.435852 
	C553.609131,295.425964 578.352173,255.416061 603.679932,215.009232 
	C603.491455,212.620789 603.302979,210.232361 603.117981,207.951065 
	C603.117981,207.951065 603.218872,207.914642 603.090698,207.308182 
	C602.783020,207.128311 602.475281,206.948441 602.283569,206.874084 
M787.405212,651.116211 
	C772.520203,625.594482 757.638245,600.070984 742.749573,574.551453 
	C723.420593,541.421326 704.113586,508.278290 684.738708,475.175079 
	C678.467163,464.459808 667.426208,459.734497 656.396240,463.086304 
	C648.825867,465.386871 643.877380,470.771118 639.973450,477.490417 
	C589.690796,564.033752 539.477844,650.618225 488.896790,736.987000 
	C478.585266,754.594299 489.619110,774.966675 510.957581,774.992493 
	C612.779724,775.115784 714.602234,775.128296 816.424255,774.974243 
	C837.093079,774.942993 848.734192,754.964172 837.948486,737.247009 
	C820.767761,709.025208 804.482788,680.258118 787.405212,651.116211 
z"/>
<path fill="#387DC3" opacity="1.000000" stroke="none" 
	d="
M330.956726,745.842651 
	C331.966431,742.141541 332.976135,738.440491 334.437500,734.302368 
	C335.889709,731.226746 337.018829,728.628784 337.867554,725.942200 
	C340.856415,716.481018 343.779053,706.998657 346.671814,697.507507 
	C352.358032,678.850952 357.982208,660.175537 363.680939,641.522827 
	C367.390106,629.382202 371.221863,617.279053 374.932770,605.138916 
	C379.246002,591.028320 383.596344,576.927124 387.680878,562.749939 
	C388.667206,559.326416 388.670929,555.619873 389.126495,552.043457 
	C393.067780,539.261108 397.009064,526.478760 401.440826,513.234985 
	C403.619812,508.028748 405.375549,503.306458 406.975403,498.531982 
	C408.245697,494.741058 405.253265,491.120148 401.378998,491.521973 
	C396.399109,492.038513 391.419861,492.738525 386.425629,492.897766 
	C378.924774,493.136902 371.411102,492.982605 363.902893,492.982513 
	C344.813873,492.982330 325.719147,493.260040 306.637695,492.878052 
	C291.980804,492.584595 277.129700,495.028992 262.712128,490.376709 
	C262.712128,490.376709 262.638519,490.364624 262.730225,489.998077 
	C261.808868,488.801270 260.795776,487.971008 259.782684,487.140747 
	C259.782684,487.140747 259.864197,487.083008 259.920471,486.695557 
	C260.015381,481.915802 258.965179,477.157898 260.294647,473.199127 
	C264.457672,460.802765 269.442596,448.677948 274.249115,436.503235 
	C281.040771,419.300262 288.053467,402.184204 294.789612,384.959808 
	C299.904602,371.880585 304.770477,358.703217 309.656830,345.535980 
	C310.417297,343.486755 310.694427,341.258148 311.195068,339.112488 
	C312.434387,335.638428 313.673706,332.164368 315.370789,328.266632 
	C317.914398,322.965149 320.127472,318.135986 322.021820,313.184875 
	C322.751953,311.276642 322.757629,309.091187 323.093384,307.032043 
	C322.982056,306.732025 323.012817,306.447357 323.737244,305.969727 
	C326.117096,300.781891 327.945374,295.802399 329.773682,290.822876 
	C329.773682,290.822876 329.864014,290.954315 330.138123,290.797089 
	C333.133728,284.571259 337.296082,279.000916 336.907623,271.856842 
	C336.907623,271.856842 336.920349,271.960602 337.216980,271.852356 
	C338.300293,270.505402 339.320526,269.356537 339.837006,268.013916 
	C344.328125,256.338776 348.774689,244.645935 353.137970,232.922409 
	C355.490723,226.600845 357.654877,220.209045 359.904114,213.848938 
	C359.904114,213.848938 359.918121,213.939926 360.240234,213.924911 
	C360.899048,213.162323 361.235748,212.414734 361.572418,211.667145 
	C361.572418,211.667145 361.585693,211.604050 361.789429,211.679230 
	C362.135895,211.708618 362.278564,211.662796 362.421265,211.616974 
	C362.250916,211.400726 362.080566,211.184479 361.910217,210.968231 
	C363.082703,209.747635 364.255188,208.527054 365.854248,207.375336 
	C366.470459,207.210205 366.660095,206.976196 366.849731,206.742188 
	C366.849701,206.742172 366.908417,206.830353 367.258484,206.895813 
	C375.939026,203.099686 384.815277,204.061920 393.574951,204.044312 
	C405.740692,204.019867 417.906525,204.044235 430.072296,204.036728 
	C486.067261,204.002151 542.062256,203.963776 598.057190,203.926758 
	C598.057190,203.926758 597.990417,203.773163 598.171875,204.073792 
	C599.254028,204.574051 600.154663,204.773682 601.055298,204.973297 
	C601.055298,204.973312 601.005615,205.003082 601.027222,205.304413 
	C601.488342,205.984344 601.927856,206.362961 602.367432,206.741592 
	C602.367432,206.741592 602.283569,206.874084 602.271362,207.109222 
	C602.579102,207.534454 602.898987,207.724548 603.218872,207.914642 
	C603.218872,207.914642 603.117981,207.951065 603.070190,208.369080 
	C603.046570,210.993454 603.070862,213.199799 603.095215,215.406158 
	C578.352173,255.416061 553.609131,295.425964 528.308228,335.763275 
	C527.527710,336.448608 527.305054,336.806519 527.082397,337.164429 
	C527.082458,337.164459 527.164124,337.023682 526.907471,337.174805 
	C526.470215,337.940430 526.289612,338.554962 526.109070,339.169464 
	C526.109070,339.169464 526.107971,339.073303 525.779785,339.089539 
	C524.665833,340.787415 523.879944,342.469055 523.094055,344.150665 
	C523.094055,344.150665 523.084534,344.061340 522.757080,344.079346 
	C521.638977,345.767273 520.848206,347.437195 520.057495,349.107147 
	C520.057495,349.107147 520.025696,349.029541 519.698364,349.059296 
	C518.944763,350.108643 518.518433,351.128265 518.092041,352.147888 
	C518.092102,352.147888 518.076294,352.058868 517.749756,352.077515 
	C516.644775,353.778656 515.866211,355.461090 515.087708,357.143555 
	C515.087708,357.143555 515.069885,357.055389 514.744995,357.075317 
	C513.630920,358.764038 512.841797,360.432831 512.052673,362.101624 
	C512.052673,362.101624 512.019409,362.026886 511.699799,362.056610 
	C511.083130,362.830780 510.786072,363.575226 510.488983,364.319672 
	C510.488983,364.319672 510.353333,364.321747 510.005554,364.352936 
	C509.457092,365.291077 509.256409,366.198029 509.055725,367.104950 
	C509.055695,367.104950 509.025299,367.027466 508.696350,367.058502 
	C507.949310,368.115143 507.531219,369.140747 507.113098,370.166382 
	C507.113129,370.166382 507.082764,370.060120 506.786560,370.152161 
	C505.685028,371.871857 504.879700,373.499573 504.074371,375.127289 
	C504.074371,375.127289 504.049255,375.042114 503.725037,375.063660 
	C502.617432,376.756439 501.834045,378.427704 501.050690,380.098969 
	C501.050690,380.098969 501.016022,380.025513 500.752411,380.029968 
	C500.310974,380.682739 500.133148,381.331055 499.955322,381.979340 
	C494.091278,391.728699 488.227203,401.478058 482.274414,411.931335 
	C483.476929,413.090851 484.767548,413.942230 486.059570,413.944427 
	C523.723389,414.008667 561.387390,414.007385 599.050964,413.901001 
	C600.364136,413.897308 601.674011,412.711517 602.985474,412.076721 
	C604.062805,412.024536 605.140076,411.972321 606.698792,412.389282 
	C611.842529,413.198517 616.504944,413.538574 621.167297,413.878601 
	C621.167297,413.878601 621.066467,413.906616 621.145752,414.132172 
	C621.540955,414.553192 621.856873,414.748657 622.172791,414.944153 
	C622.172791,414.944153 622.062012,414.925812 622.062256,415.223999 
	C622.768433,416.334839 623.474426,417.147491 624.180420,417.960175 
	C626.312317,423.615753 624.536621,428.550354 621.010620,432.901886 
	C605.511719,452.029572 589.922974,471.084564 574.341431,490.145172 
	C522.228455,553.893982 470.116455,617.643616 417.979553,681.372864 
	C394.805176,709.699890 371.666351,738.057556 348.249451,766.183167 
	C345.240021,769.797791 340.648346,772.095032 336.153473,774.744080 
	C333.637054,774.347900 331.756775,774.210144 329.876495,774.072449 
	C329.876495,774.072449 329.964600,774.057861 329.952332,773.716309 
	C326.292358,768.142395 326.592407,762.653442 328.488434,756.853760 
	C329.651978,753.294800 330.156372,749.520325 330.956726,745.842651 
z"/>
<path fill="#F9C415" opacity="1.000000" stroke="none" 
	d="
M787.612061,651.418945 
	C804.482788,680.258118 820.767761,709.025208 837.948486,737.247009 
	C848.734192,754.964172 837.093079,774.942993 816.424255,774.974243 
	C714.602234,775.128296 612.779724,775.115784 510.957581,774.992493 
	C489.619110,774.966675 478.585266,754.594299 488.896790,736.987000 
	C539.477844,650.618225 589.690796,564.033752 639.973450,477.490417 
	C643.877380,470.771118 648.825867,465.386871 656.396240,463.086304 
	C667.426208,459.734497 678.467163,464.459808 684.738708,475.175079 
	C704.113586,508.278290 723.420593,541.421326 742.749573,574.551453 
	C757.638245,600.070984 772.520203,625.594482 787.612061,651.418945 
M653.040833,674.575134 
	C653.341553,674.789490 653.642334,675.003784 654.096008,675.663147 
	C654.308594,675.933838 654.586426,676.054504 655.300720,676.499512 
	C655.855286,676.716309 656.409790,676.933105 656.963867,677.057251 
	C656.963867,677.057251 656.873657,677.078674 657.387878,677.656494 
	C663.202332,680.167786 668.442383,679.199463 673.601807,674.948730 
	C673.896240,674.788025 674.051941,674.540100 674.632385,673.876892 
	C675.176758,672.953003 675.721069,672.029114 676.136353,671.088867 
	C676.136353,671.088867 676.170227,671.214478 676.707581,670.880249 
	C676.890137,670.278137 677.072754,669.675964 677.140869,669.030945 
	C677.140869,669.030945 677.128601,669.152588 677.760498,668.617432 
	C678.181091,665.395508 678.772766,662.185303 678.993225,658.949768 
	C680.063965,643.235168 681.027832,627.513306 682.043823,611.794983 
	C683.025085,596.613586 684.322205,581.442810 684.803528,566.245850 
	C684.922852,562.480652 682.421814,558.632446 681.106628,554.924316 
	C681.106628,554.924316 681.197388,554.874329 681.002014,554.267944 
	C680.189087,553.384399 679.376160,552.500854 678.464050,551.545837 
	C678.464050,551.545837 678.399780,551.441711 678.184265,550.940002 
	C677.622009,550.491089 677.059692,550.042236 676.397888,549.580322 
	C676.397888,549.580322 676.304077,549.544617 675.973206,548.985474 
	C666.055237,542.382263 657.180664,542.668335 648.903870,549.887024 
	C648.903870,549.887024 648.856506,549.790588 648.260315,550.048157 
	C647.146423,551.349426 646.032532,552.650696 644.995056,553.982361 
	C644.995056,553.982361 644.951172,553.912842 644.446777,554.253357 
	C644.215515,554.810608 643.984253,555.367920 643.883545,555.930603 
	C643.883545,555.930603 643.847046,555.805054 643.246704,556.222778 
	C642.296326,560.852356 640.435120,565.507996 640.567078,570.106506 
	C640.956665,583.688965 642.057739,597.254333 643.045349,610.814331 
	C643.393494,615.593628 644.218933,620.338135 644.930176,625.743774 
	C644.999573,626.172180 645.068909,626.600525 645.073853,627.942566 
	C645.478271,633.131592 645.881042,638.320801 646.287476,643.509705 
	C646.874023,650.997498 647.239197,658.513794 648.189087,665.955383 
	C648.470276,668.158264 650.402527,670.150391 651.584839,672.311279 
	C651.584839,672.311279 651.564392,672.380737 651.622742,672.962708 
	C652.047546,673.361328 652.472351,673.759888 652.934753,674.062927 
	C652.934753,674.062927 652.832642,674.052063 653.040833,674.575134 
M648.188782,734.568298 
	C648.779541,735.065857 649.370361,735.563477 649.994263,735.999512 
	C649.994263,735.999512 649.937561,736.040588 650.302307,736.626221 
	C659.308411,742.644714 667.891296,742.910156 675.002441,737.002441 
	C675.002441,737.002441 675.301392,737.395813 675.930237,737.267761 
	C676.713867,736.540833 677.497498,735.813965 678.790161,734.889465 
	C679.210815,734.315735 679.631470,733.742065 680.625671,732.758789 
	C684.708557,726.010498 686.966919,719.136841 682.068542,711.363831 
	C682.068542,711.363831 681.927063,710.981873 681.932312,710.441895 
	C681.634827,710.254150 681.337402,710.066467 680.780762,709.268860 
	C678.711548,707.165649 676.642334,705.062378 674.278259,702.370850 
	C664.204346,697.326660 655.128662,698.883728 647.944946,706.945740 
	C647.944946,706.945740 647.904053,706.850952 647.306091,707.201355 
	C641.819031,714.885620 640.882446,722.832092 645.953857,731.037903 
	C645.953857,731.037903 645.869568,731.067322 645.969238,731.710327 
	C646.635193,732.491089 647.301086,733.271851 648.001038,734.002686 
	C648.001038,734.002686 647.948303,734.031921 648.188782,734.568298 
z"/>
<path fill="#1B68BA" opacity="1.000000" stroke="none" 
	d="
M389.016022,552.402100 
	C388.670929,555.619873 388.667206,559.326416 387.680878,562.749939 
	C383.596344,576.927124 379.246002,591.028320 374.932770,605.138916 
	C371.221863,617.279053 367.390106,629.382202 363.680939,641.522827 
	C357.982208,660.175537 352.358032,678.850952 346.671814,697.507507 
	C343.779053,706.998657 340.856415,716.481018 337.867554,725.942200 
	C337.018829,728.628784 335.889709,731.226746 334.522766,733.919189 
	C338.146881,720.362854 342.047546,706.725525 346.144196,693.147339 
	C360.134308,646.778137 374.192657,600.429565 388.236847,554.076721 
	C388.377319,553.613098 388.679077,553.198364 389.016022,552.402100 
z"/>
<path fill="#1B68BA" opacity="1.000000" stroke="none" 
	d="
M262.854980,490.684753 
	C277.129700,495.028992 291.980804,492.584595 306.637695,492.878052 
	C325.719147,493.260040 344.813873,492.982330 363.902893,492.982513 
	C371.411102,492.982605 378.924774,493.136902 386.425629,492.897766 
	C391.419861,492.738525 396.399109,492.038513 401.378998,491.521973 
	C405.253265,491.120148 408.245697,494.741058 406.975403,498.531982 
	C405.375549,503.306458 403.619812,508.028748 401.598297,512.863892 
	C402.845459,507.071045 404.425659,501.187927 406.187439,494.628723 
	C398.480957,494.628723 391.084229,494.653473 383.687744,494.624542 
	C347.039215,494.481201 310.389893,494.410492 273.743713,494.034302 
	C270.151703,493.997437 266.579315,492.052246 262.854980,490.684753 
z"/>
<path fill="#1B68BA" opacity="1.000000" stroke="none" 
	d="
M310.868774,339.257751 
	C310.694427,341.258148 310.417297,343.486755 309.656830,345.535980 
	C304.770477,358.703217 299.904602,371.880585 294.789612,384.959808 
	C288.053467,402.184204 281.040771,419.300262 274.249115,436.503235 
	C269.442596,448.677948 264.457672,460.802765 260.294647,473.199127 
	C258.965179,477.157898 260.015381,481.915802 259.921906,486.745483 
	C255.534531,481.661774 257.263275,475.990051 259.466461,470.319580 
	C271.453827,439.467041 283.433136,408.611389 295.448486,377.769775 
	C300.437317,364.964294 305.508636,352.190948 310.868774,339.257751 
z"/>
<path fill="#1B68BA" opacity="1.000000" stroke="none" 
	d="
M597.855713,203.536133 
	C542.062256,203.963776 486.067261,204.002151 430.072296,204.036728 
	C417.906525,204.044235 405.740692,204.019867 393.574951,204.044312 
	C384.815277,204.061920 375.939026,203.099686 367.205963,206.902588 
	C370.286438,205.541641 373.765778,203.114502 377.253174,203.102905 
	C449.727814,202.861679 522.203369,202.893417 594.678772,202.884537 
	C595.670593,202.884415 596.662476,203.054749 597.855713,203.536133 
z"/>
<path fill="#1B68BA" opacity="1.000000" stroke="none" 
	d="
M602.520142,412.025635 
	C601.674011,412.711517 600.364136,413.897308 599.050964,413.901001 
	C561.387390,414.007385 523.723389,414.008667 486.059570,413.944427 
	C484.767548,413.942230 483.476929,413.090851 482.116699,412.223633 
	C503.787018,411.875946 525.526184,411.964325 547.265503,411.996307 
	C565.528564,412.023193 583.791748,411.984314 602.520142,412.025635 
z"/>
<path fill="#1B68BA" opacity="1.000000" stroke="none" 
	d="
M359.612061,214.044830 
	C357.654877,220.209045 355.490723,226.600845 353.137970,232.922409 
	C348.774689,244.645935 344.328125,256.338776 339.837006,268.013916 
	C339.320526,269.356537 338.300293,270.505402 337.165161,271.845581 
	C344.317810,252.711594 351.818909,233.476166 359.612061,214.044830 
z"/>
<path fill="#1B68BA" opacity="1.000000" stroke="none" 
	d="
M330.641296,746.034973 
	C330.156372,749.520325 329.651978,753.294800 328.488434,756.853760 
	C326.592407,762.653442 326.292358,768.142395 329.932892,773.756470 
	C325.717438,771.615479 323.978149,767.527100 325.373749,762.361938 
	C326.840363,756.934021 328.660309,751.601501 330.641296,746.034973 
z"/>
<path fill="#1B68BA" opacity="1.000000" stroke="none" 
	d="
M322.953613,307.362427 
	C322.757629,309.091187 322.751953,311.276642 322.021820,313.184875 
	C320.127472,318.135986 317.914398,322.965149 315.486389,327.907837 
	C317.700775,321.212769 320.257324,314.452789 322.953613,307.362427 
z"/>
<path fill="#1B68BA" opacity="1.000000" stroke="none" 
	d="
M336.620911,272.075195 
	C337.296082,279.000916 333.133728,284.571259 330.069397,290.756622 
	C331.929108,284.680115 334.131622,278.486847 336.620911,272.075195 
z"/>
<path fill="#1B68BA" opacity="1.000000" stroke="none" 
	d="
M329.457886,290.976532 
	C327.945374,295.802399 326.117096,300.781891 323.917633,305.841431 
	C325.411682,300.991028 327.276855,296.060608 329.457886,290.976532 
z"/>
<path fill="#1B68BA" opacity="1.000000" stroke="none" 
	d="
M620.939575,413.553040 
	C616.504944,413.538574 611.842529,413.198517 607.097229,412.466858 
	C611.580139,412.459351 616.145935,412.843414 620.939575,413.553040 
z"/>
<path fill="#1B68BA" opacity="1.000000" stroke="none" 
	d="
M520.319946,348.905060 
	C520.848206,347.437195 521.638977,345.767273 522.799622,344.093750 
	C522.307129,345.627777 521.444763,347.165375 520.319946,348.905060 
z"/>
<path fill="#1B68BA" opacity="1.000000" stroke="none" 
	d="
M515.367981,356.961121 
	C515.866211,355.461090 516.644775,353.778656 517.792847,352.091156 
	C517.324402,353.650299 516.486328,355.214478 515.367981,356.961121 
z"/>
<path fill="#1B68BA" opacity="1.000000" stroke="none" 
	d="
M512.313965,361.898560 
	C512.841797,360.432831 513.630920,358.764038 514.787964,357.088501 
	C514.295654,358.619690 513.435425,360.157593 512.313965,361.898560 
z"/>
<path fill="#1B68BA" opacity="1.000000" stroke="none" 
	d="
M523.372681,343.966431 
	C523.879944,342.469055 524.665833,340.787415 525.824341,339.107666 
	C525.348511,340.667114 524.499939,342.224670 523.372681,343.966431 
z"/>
<path fill="#1B68BA" opacity="1.000000" stroke="none" 
	d="
M501.306488,379.890350 
	C501.834045,378.427704 502.617432,376.756439 503.767395,375.076904 
	C503.276733,376.606354 502.419525,378.144043 501.306488,379.890350 
z"/>
<path fill="#1B68BA" opacity="1.000000" stroke="none" 
	d="
M603.387573,215.207687 
	C603.070862,213.199799 603.046570,210.993454 603.068359,208.315521 
	C603.302979,210.232361 603.491455,212.620789 603.387573,215.207687 
z"/>
<path fill="#1B68BA" opacity="1.000000" stroke="none" 
	d="
M330.106964,774.344177 
	C331.756775,774.210144 333.637054,774.347900 335.781555,774.781311 
	C334.143005,774.923340 332.240204,774.769653 330.106964,774.344177 
z"/>
<path fill="#1B68BA" opacity="1.000000" stroke="none" 
	d="
M504.340881,374.927002 
	C504.879700,373.499573 505.685028,371.871857 506.841858,370.152802 
	C506.331360,371.616516 505.469391,373.171600 504.340881,374.927002 
z"/>
<path fill="#1B68BA" opacity="1.000000" stroke="none" 
	d="
M259.879089,487.448792 
	C260.795776,487.971008 261.808868,488.801270 262.693054,490.001526 
	C261.701324,489.499969 260.838409,488.628418 259.879089,487.448792 
z"/>
<path fill="#1B68BA" opacity="1.000000" stroke="none" 
	d="
M624.142700,417.618530 
	C623.474426,417.147491 622.768433,416.334839 622.084961,415.172638 
	C622.773315,415.641052 623.439148,416.458984 624.142700,417.618530 
z"/>
<path fill="#1B68BA" opacity="1.000000" stroke="none" 
	d="
M507.383270,370.000488 
	C507.531219,369.140747 507.949310,368.115143 508.736359,367.069977 
	C508.621368,367.978485 508.137421,368.906555 507.383270,370.000488 
z"/>
<path fill="#1B68BA" opacity="1.000000" stroke="none" 
	d="
M518.360352,351.980225 
	C518.518433,351.128265 518.944763,350.108643 519.738892,349.070221 
	C519.614014,349.971771 519.121338,350.892181 518.360352,351.980225 
z"/>
<path fill="#1B68BA" opacity="1.000000" stroke="none" 
	d="
M500.126404,381.750488 
	C500.133148,381.331055 500.310974,380.682739 500.791687,380.040344 
	C500.828857,380.538025 500.563141,381.029816 500.126404,381.750488 
z"/>
<path fill="#1B68BA" opacity="1.000000" stroke="none" 
	d="
M510.754669,364.217957 
	C510.786072,363.575226 511.083130,362.830780 511.739471,362.066589 
	C511.739288,362.736603 511.379822,363.426422 510.754669,364.217957 
z"/>
<path fill="#1B68BA" opacity="1.000000" stroke="none" 
	d="
M361.301331,211.773529 
	C361.235748,212.414734 360.899048,213.162323 360.197205,213.908600 
	C360.231445,213.231506 360.630859,212.555710 361.301331,211.773529 
z"/>
<path fill="#1B68BA" opacity="1.000000" stroke="none" 
	d="
M600.854126,204.703705 
	C600.154663,204.773682 599.254028,204.574051 598.243164,204.029739 
	C598.972900,203.934738 599.812866,204.184418 600.854126,204.703705 
z"/>
<path fill="#1B68BA" opacity="1.000000" stroke="none" 
	d="
M509.320251,366.886108 
	C509.256409,366.198029 509.457092,365.291077 510.009796,364.285217 
	C510.102814,365.013336 509.843811,365.840302 509.320251,366.886108 
z"/>
<path fill="#1B68BA" opacity="1.000000" stroke="none" 
	d="
M526.381287,339.010315 
	C526.289612,338.554962 526.470215,337.940430 526.973083,337.223022 
	C527.081360,337.697174 526.867432,338.274200 526.381287,339.010315 
z"/>
<path fill="#1B68BA" opacity="1.000000" stroke="none" 
	d="
M602.358459,206.440155 
	C601.927856,206.362961 601.488342,205.984344 601.036743,205.277069 
	C601.466309,205.345200 601.907898,205.741959 602.358459,206.440155 
z"/>
<path fill="#1B68BA" opacity="1.000000" stroke="none" 
	d="
M527.419312,337.085999 
	C527.305054,336.806519 527.527710,336.448608 528.025513,335.908997 
	C528.119202,336.154053 527.937744,336.580811 527.419312,337.085999 
z"/>
<path fill="#1B68BA" opacity="1.000000" stroke="none" 
	d="
M361.757996,211.073364 
	C362.080566,211.184479 362.250916,211.400726 362.421265,211.616974 
	C362.278564,211.662796 362.135895,211.708618 361.776001,211.649933 
	C361.558838,211.545425 361.605804,211.178482 361.757996,211.073364 
z"/>
<path fill="#1B68BA" opacity="1.000000" stroke="none" 
	d="
M603.154785,207.611420 
	C602.898987,207.724548 602.579102,207.534454 602.213379,207.056458 
	C602.475281,206.948441 602.783020,207.128311 603.154785,207.611420 
z"/>
<path fill="#1B68BA" opacity="1.000000" stroke="none" 
	d="
M366.629395,206.800613 
	C366.660095,206.976196 366.470459,207.210205 366.161316,207.286652 
	C366.041840,207.129105 366.409088,206.859039 366.629395,206.800613 
z"/>
<path fill="#1B68BA" opacity="1.000000" stroke="none" 
	d="
M622.076111,414.678650 
	C621.856873,414.748657 621.540955,414.553192 621.149597,414.080017 
	C621.375977,414.005890 621.677673,414.209534 622.076111,414.678650 
z"/>
<path fill="#2A2F35" opacity="1.000000" stroke="none" 
	d="
M674.068848,674.205078 
	C674.051941,674.540100 673.896240,674.788025 672.972168,674.981140 
	C667.186279,675.701904 662.029968,676.390320 656.873657,677.078674 
	C656.873657,677.078674 656.963867,677.057251 656.829529,676.816284 
	C656.106567,676.391907 655.518005,676.208557 654.929382,676.025208 
	C654.586426,676.054504 654.308594,675.933838 653.927856,675.169067 
	C653.450623,674.467346 653.141663,674.259705 652.832642,674.052063 
	C652.832642,674.052063 652.934753,674.062927 652.931763,673.769226 
	C652.473999,673.110596 652.019226,672.745667 651.564392,672.380737 
	C651.564392,672.380737 651.584839,672.311279 651.708191,671.930237 
	C650.889893,665.707031 649.607849,659.894836 649.088745,654.015381 
	C648.367065,645.841980 648.292664,637.612793 647.710571,629.423889 
	C647.649780,628.568909 646.033081,627.824585 645.138245,627.028931 
	C645.068909,626.600525 644.999573,626.172180 645.214783,625.159424 
	C645.645569,621.614441 646.072021,618.636658 645.892456,615.695862 
	C644.674744,595.749146 640.289307,575.916260 643.847046,555.805054 
	C643.847046,555.805054 643.883545,555.930603 644.124390,555.812805 
	C644.560608,555.100952 644.755920,554.506897 644.951172,553.912842 
	C644.951172,553.912842 644.995056,553.982361 645.330322,553.987915 
	C646.729187,552.592529 647.792847,551.191528 648.856506,549.790588 
	C648.856506,549.790588 648.903870,549.887024 649.237061,549.900513 
	C657.806335,546.004028 666.056030,544.088074 674.435425,549.590576 
	C674.863586,549.871765 675.672485,549.573242 676.304077,549.544617 
	C676.304077,549.544617 676.397888,549.580322 676.315186,549.960449 
	C676.954895,550.707642 677.677307,551.074646 678.399780,551.441711 
	C678.399780,551.441711 678.464050,551.545837 678.345154,551.938293 
	C679.216614,553.178589 680.207031,554.026489 681.197388,554.874329 
	C681.197388,554.874329 681.106628,554.924316 681.066650,555.286865 
	C681.050293,556.312256 680.852661,557.091736 681.131165,557.620239 
	C684.395752,563.815491 684.581177,570.291504 682.989685,576.932068 
	C682.577148,578.653198 681.147339,580.624207 681.619202,581.981812 
	C684.281860,589.641418 680.619751,596.999390 680.909119,604.552979 
	C681.139771,610.573914 679.602051,616.642090 679.206665,622.712585 
	C678.679199,630.810303 678.516052,638.931396 678.162598,647.040955 
	C677.841431,654.412537 677.475037,661.782104 677.128601,669.152588 
	C677.128601,669.152588 677.140869,669.030945 676.880249,669.177002 
	C676.469788,669.953552 676.320007,670.584045 676.170288,671.214478 
	C676.170227,671.214478 676.136353,671.088867 675.850342,671.175781 
	C675.065857,672.243530 674.567322,673.224304 674.068848,674.205078 
z"/>
<path fill="#2A2F35" opacity="1.000000" stroke="none" 
	d="
M674.573120,702.959167 
	C676.642334,705.062378 678.711548,707.165649 680.983398,709.812500 
	C681.330627,710.686035 681.577637,710.894592 681.927063,710.981873 
	C681.927063,710.981873 682.068542,711.363831 682.037598,712.013733 
	C682.309448,716.570801 683.062561,720.512146 682.769836,724.374146 
	C682.543762,727.357117 681.006531,730.240601 680.052124,733.168335 
	C679.631470,733.742065 679.210815,734.315735 678.172363,734.973572 
	C676.803528,735.837036 676.052429,736.616394 675.301392,737.395752 
	C675.301392,737.395813 675.002441,737.002441 674.763794,737.087769 
	C667.174072,740.806274 659.953674,741.037170 652.824402,736.506836 
	C652.068604,736.026489 650.909546,736.180786 649.937561,736.040649 
	C649.937561,736.040588 649.994263,735.999512 649.958008,735.695679 
	C649.263977,734.938538 648.606140,734.485229 647.948303,734.031921 
	C647.948303,734.031921 648.001038,734.002686 647.993042,733.660400 
	C647.279907,732.567871 646.574768,731.817566 645.869568,731.067322 
	C645.869568,731.067322 645.953857,731.037903 645.966675,730.661499 
	C645.072815,724.887939 642.742981,719.577820 645.136658,713.991272 
	C646.141296,711.646423 646.986450,709.233154 647.904053,706.850952 
	C647.904053,706.850952 647.944946,706.945740 648.274414,706.961548 
	C649.086487,706.899963 649.744629,706.998840 650.025879,706.718994 
	C656.168701,700.607605 663.266418,699.593384 671.204529,702.542480 
	C672.236572,702.925842 673.445923,702.831970 674.573120,702.959167 
z"/>
<path fill="#141738" opacity="1.000000" stroke="none" 
	d="
M677.444580,668.885010 
	C677.475037,661.782104 677.841431,654.412537 678.162598,647.040955 
	C678.516052,638.931396 678.679199,630.810303 679.206665,622.712585 
	C679.602051,616.642090 681.139771,610.573914 680.909119,604.552979 
	C680.619751,596.999390 684.281860,589.641418 681.619202,581.981812 
	C681.147339,580.624207 682.577148,578.653198 682.989685,576.932068 
	C684.581177,570.291504 684.395752,563.815491 681.131165,557.620239 
	C680.852661,557.091736 681.050293,556.312256 681.075928,555.235901 
	C682.421814,558.632446 684.922852,562.480652 684.803528,566.245850 
	C684.322205,581.442810 683.025085,596.613586 682.043823,611.794983 
	C681.027832,627.513306 680.063965,643.235168 678.993225,658.949768 
	C678.772766,662.185303 678.181091,665.395508 677.444580,668.885010 
z"/>
<path fill="#141738" opacity="1.000000" stroke="none" 
	d="
M643.546875,556.013916 
	C640.289307,575.916260 644.674744,595.749146 645.892456,615.695862 
	C646.072021,618.636658 645.645569,621.614441 645.162964,624.836792 
	C644.218933,620.338135 643.393494,615.593628 643.045349,610.814331 
	C642.057739,597.254333 640.956665,583.688965 640.567078,570.106506 
	C640.435120,565.507996 642.296326,560.852356 643.546875,556.013916 
z"/>
<path fill="#141738" opacity="1.000000" stroke="none" 
	d="
M645.106079,627.485718 
	C646.033081,627.824585 647.649780,628.568909 647.710571,629.423889 
	C648.292664,637.612793 648.367065,645.841980 649.088745,654.015381 
	C649.607849,659.894836 650.889893,665.707031 651.704834,671.894165 
	C650.402527,670.150391 648.470276,668.158264 648.189087,665.955383 
	C647.239197,658.513794 646.874023,650.997498 646.287476,643.509705 
	C645.881042,638.320801 645.478271,633.131592 645.106079,627.485718 
z"/>
<path fill="#141738" opacity="1.000000" stroke="none" 
	d="
M676.138672,549.265015 
	C675.672485,549.573242 674.863586,549.871765 674.435425,549.590576 
	C666.056030,544.088074 657.806335,546.004028 649.184937,549.887695 
	C657.180664,542.668335 666.055237,542.382263 676.138672,549.265015 
z"/>
<path fill="#141738" opacity="1.000000" stroke="none" 
	d="
M674.425659,702.665039 
	C673.445923,702.831970 672.236572,702.925842 671.204529,702.542480 
	C663.266418,699.593384 656.168701,700.607605 650.025879,706.718994 
	C649.744629,706.998840 649.086487,706.899963 648.226990,706.941162 
	C655.128662,698.883728 664.204346,697.326660 674.425659,702.665039 
z"/>
<path fill="#141738" opacity="1.000000" stroke="none" 
	d="
M650.119934,736.333435 
	C650.909546,736.180786 652.068604,736.026489 652.824402,736.506836 
	C659.953674,741.037170 667.174072,740.806274 674.910828,737.286194 
	C667.891296,742.910156 659.308411,742.644714 650.119934,736.333435 
z"/>
<path fill="#141738" opacity="1.000000" stroke="none" 
	d="
M647.605103,707.026123 
	C646.986450,709.233154 646.141296,711.646423 645.136658,713.991272 
	C642.742981,719.577820 645.072815,724.887939 645.953613,730.704102 
	C640.882446,722.832092 641.819031,714.885620 647.605103,707.026123 
z"/>
<path fill="#141738" opacity="1.000000" stroke="none" 
	d="
M680.338867,732.963562 
	C681.006531,730.240601 682.543762,727.357117 682.769836,724.374146 
	C683.062561,720.512146 682.309448,716.570801 682.037476,712.217407 
	C686.966919,719.136841 684.708557,726.010498 680.338867,732.963562 
z"/>
<path fill="#141738" opacity="1.000000" stroke="none" 
	d="
M657.130737,677.367554 
	C662.029968,676.390320 667.186279,675.701904 672.750244,675.033447 
	C668.442383,679.199463 663.202332,680.167786 657.130737,677.367554 
z"/>
<path fill="#141738" opacity="1.000000" stroke="none" 
	d="
M648.558411,549.919373 
	C647.792847,551.191528 646.729187,552.592529 645.292114,553.972778 
	C646.032532,552.650696 647.146423,551.349426 648.558411,549.919373 
z"/>
<path fill="#141738" opacity="1.000000" stroke="none" 
	d="
M681.099731,554.571167 
	C680.207031,554.026489 679.216614,553.178589 678.394775,551.973999 
	C679.376160,552.500854 680.189087,553.384399 681.099731,554.571167 
z"/>
<path fill="#141738" opacity="1.000000" stroke="none" 
	d="
M645.919434,731.388794 
	C646.574768,731.817566 647.279907,732.567871 647.976074,733.685364 
	C647.301086,733.271851 646.635193,732.491089 645.919434,731.388794 
z"/>
<path fill="#141738" opacity="1.000000" stroke="none" 
	d="
M678.291992,551.190857 
	C677.677307,551.074646 676.954895,550.707642 676.364929,549.966980 
	C677.059692,550.042236 677.622009,550.491089 678.291992,551.190857 
z"/>
<path fill="#141738" opacity="1.000000" stroke="none" 
	d="
M675.615784,737.331787 
	C676.052429,736.616394 676.803528,735.837036 677.917847,735.072388 
	C677.497498,735.813965 676.713867,736.540833 675.615784,737.331787 
z"/>
<path fill="#141738" opacity="1.000000" stroke="none" 
	d="
M674.350586,674.041016 
	C674.567322,673.224304 675.065857,672.243530 675.914917,671.183960 
	C675.721069,672.029114 675.176758,672.953003 674.350586,674.041016 
z"/>
<path fill="#141738" opacity="1.000000" stroke="none" 
	d="
M648.068542,734.300110 
	C648.606140,734.485229 649.263977,734.938538 649.941467,735.726440 
	C649.370361,735.563477 648.779541,735.065857 648.068542,734.300110 
z"/>
<path fill="#141738" opacity="1.000000" stroke="none" 
	d="
M655.115051,676.262329 
	C655.518005,676.208557 656.106567,676.391907 656.829773,676.862610 
	C656.409790,676.933105 655.855286,676.716309 655.115051,676.262329 
z"/>
<path fill="#141738" opacity="1.000000" stroke="none" 
	d="
M651.593567,672.671753 
	C652.019226,672.745667 652.473999,673.110596 652.912964,673.817017 
	C652.472351,673.759888 652.047546,673.361328 651.593567,672.671753 
z"/>
<path fill="#141738" opacity="1.000000" stroke="none" 
	d="
M676.438965,671.047363 
	C676.320007,670.584045 676.469788,669.953552 676.937500,669.198486 
	C677.072754,669.675964 676.890137,670.278137 676.438965,671.047363 
z"/>
<path fill="#141738" opacity="1.000000" stroke="none" 
	d="
M644.698975,554.083130 
	C644.755920,554.506897 644.560608,555.100952 644.059082,555.810059 
	C643.984253,555.367920 644.215515,554.810608 644.698975,554.083130 
z"/>
<path fill="#141738" opacity="1.000000" stroke="none" 
	d="
M652.936768,674.313599 
	C653.141663,674.259705 653.450623,674.467346 653.851318,674.946533 
	C653.642334,675.003784 653.341553,674.789490 652.936768,674.313599 
z"/>
<path fill="#141738" opacity="1.000000" stroke="none" 
	d="
M681.929688,710.711914 
	C681.577637,710.894592 681.330627,710.686035 681.112976,710.117493 
	C681.337402,710.066467 681.634827,710.254150 681.929688,710.711914 
z"/>
</svg>