<?xml version="1.0" encoding="UTF-8"?>
<!DOCTYPE svg PUBLIC "-//W3C//DTD SVG 1.1//EN" "http://www.w3.org/Graphics/SVG/1.1/DTD/svg11.dtd">
<svg xmlns="http://www.w3.org/2000/svg" version="1.1" width="1024px" height="1024px" style="shape-rendering:geometricPrecision; text-rendering:geometricPrecision; image-rendering:optimizeQuality; fill-rule:evenodd; clip-rule:evenodd" xmlns:xlink="http://www.w3.org/1999/xlink">
<g><path style="opacity:1" fill="#fdfdfd" d="M -0.5,-0.5 C 340.833,-0.5 682.167,-0.5 1023.5,-0.5C 1023.5,340.833 1023.5,682.167 1023.5,1023.5C 682.167,1023.5 340.833,1023.5 -0.5,1023.5C -0.5,682.167 -0.5,340.833 -0.5,-0.5 Z"/></g>
<g><path style="opacity:1" fill="#f1a61c" d="M 672.5,227.5 C 678.318,225.969 681.984,227.969 683.5,233.5C 678.623,247.296 674.457,261.296 671,275.5C 668.294,282.703 663.961,284.037 658,279.5C 656.543,276.634 656.21,273.634 657,270.5C 659.536,260.02 662.536,249.686 666,239.5C 667.402,235.025 669.569,231.025 672.5,227.5 Z"/></g>
<g><path style="opacity:1" fill="#f1a419" d="M 760.5,264.5 C 770.245,263.405 773.411,267.405 770,276.5C 754.195,291.304 738.695,306.471 723.5,322C 713.748,325.569 709.915,322.403 712,312.5C 728.115,296.217 744.282,280.217 760.5,264.5 Z"/></g>
<g><path style="opacity:1" fill="#4783c7" d="M 518.5,530.5 C 540.236,500.706 561.736,470.706 583,440.5C 584.467,433.63 581.967,428.796 575.5,426C 538.495,425.167 501.495,425.333 464.5,426.5C 448.836,461.829 433.169,497.162 417.5,532.5C 381.212,531.953 344.878,531.12 308.5,530C 268.915,519.748 245.081,494.581 237,454.5C 233.001,419.684 244.167,390.851 270.5,368C 283.931,357.118 299.264,350.952 316.5,349.5C 321.389,295.211 348.722,257.044 398.5,235C 438.763,219.33 478.097,221.33 516.5,241C 536.215,252.214 552.215,267.38 564.5,286.5C 605.604,275.255 638.771,286.589 664,320.5C 670.663,330.496 674.496,341.496 675.5,353.5C 707.969,358.991 730.469,376.991 743,407.5C 755.918,447.328 747.418,481.828 717.5,511C 703.646,521.756 687.979,528.423 670.5,531C 619.665,531.832 568.998,531.665 518.5,530.5 Z"/></g>
<g><path style="opacity:1" fill="#f1a419" d="M 796.5,352.5 C 804.785,351.735 807.952,355.401 806,363.5C 805.5,364.667 804.667,365.5 803.5,366C 789.528,369.602 775.528,373.102 761.5,376.5C 756.169,375.83 753.669,372.83 754,367.5C 754.978,365.525 756.311,363.858 758,362.5C 770.972,359.217 783.805,355.883 796.5,352.5 Z"/></g>
<g><path style="opacity:1" fill="#f1a81b" d="M 518.5,530.5 C 514.732,535.175 511.066,540.009 507.5,545C 538.5,545.333 569.5,545.667 600.5,546C 605.732,548.633 607.565,552.799 606,558.5C 548.959,624.539 492.292,690.872 436,757.5C 430.707,763.955 425.707,763.955 421,757.5C 420.348,754.406 420.682,751.406 422,748.5C 442.816,699.53 463.649,650.53 484.5,601.5C 456.839,600.667 429.173,600.167 401.5,600C 394.474,598.122 391.974,593.622 394,586.5C 401.743,568.429 409.576,550.429 417.5,532.5C 433.169,497.162 448.836,461.829 464.5,426.5C 501.495,425.333 538.495,425.167 575.5,426C 581.967,428.796 584.467,433.63 583,440.5C 561.736,470.706 540.236,500.706 518.5,530.5 Z"/></g>
<g><path style="opacity:1" fill="#4782c6" d="M 627.5,598.5 C 631.007,597.994 634.174,598.66 637,600.5C 645.782,615.729 653.782,631.396 661,647.5C 665.031,665.937 658.531,679.103 641.5,687C 622.731,691.532 609.564,685.032 602,667.5C 600,660.5 600,653.5 602,646.5C 610.258,630.315 618.758,614.315 627.5,598.5 Z"/></g>
<g><path style="opacity:1" fill="#4581c6" d="M 349.5,598.5 C 354.439,597.352 357.939,599.019 360,603.5C 367.621,618.408 374.955,633.408 382,648.5C 385.042,675.79 372.875,688.956 345.5,688C 323.577,679.652 316.743,664.486 325,642.5C 331.922,629.656 338.589,616.656 345,603.5C 346.059,601.341 347.559,599.674 349.5,598.5 Z"/></g>
<g><path style="opacity:1" fill="#4782c6" d="M 546.5,696.5 C 549.32,696.248 551.986,696.748 554.5,698C 565.321,714.81 574.155,732.643 581,751.5C 582.141,768.735 574.641,780.235 558.5,786C 532.503,788.334 519.67,776.501 520,750.5C 527.545,731.745 536.378,713.745 546.5,696.5 Z"/></g>
</svg>
